<svg xmlns="http://www.w3.org/2000/svg" xmlns:xlink="http://www.w3.org/1999/xlink" width="600" zoomAndPan="magnify" viewBox="0 0 450 135.000003" height="180" preserveAspectRatio="xMidYMid meet" version="1.0"><defs><g/></defs><g fill="#000000" fill-opacity="1"><g transform="translate(157.415415, 100.599691)"><g><path d="M 26.578125 -6.390625 C 29.554688 -6.390625 32.210938 -7.03125 34.546875 -8.3125 C 36.878906 -9.601562 38.789062 -11.398438 40.28125 -13.703125 L 46.671875 -10.546875 C 44.640625 -7.097656 41.882812 -4.359375 38.40625 -2.328125 C 34.925781 -0.304688 30.984375 0.703125 26.578125 0.703125 C 21.910156 0.703125 17.816406 -0.410156 14.296875 -2.640625 C 10.785156 -4.867188 8.03125 -7.894531 6.03125 -11.71875 C 4.039062 -15.539062 3.046875 -19.753906 3.046875 -24.359375 C 3.046875 -29.023438 4.023438 -33.265625 5.984375 -37.078125 C 7.941406 -40.898438 10.695312 -43.945312 14.25 -46.21875 C 17.800781 -48.488281 21.878906 -49.625 26.484375 -49.625 C 30.953125 -49.625 34.925781 -48.570312 38.40625 -46.46875 C 41.882812 -44.375 44.640625 -41.601562 46.671875 -38.15625 L 40.28125 -35.109375 C 38.789062 -37.335938 36.878906 -39.128906 34.546875 -40.484375 C 32.210938 -41.835938 29.523438 -42.515625 26.484375 -42.515625 C 23.171875 -42.515625 20.3125 -41.703125 17.90625 -40.078125 C 15.507812 -38.453125 13.664062 -36.269531 12.375 -33.53125 C 11.09375 -30.789062 10.453125 -27.734375 10.453125 -24.359375 C 10.453125 -21.035156 11.09375 -18.003906 12.375 -15.265625 C 13.664062 -12.523438 15.523438 -10.359375 17.953125 -8.765625 C 20.390625 -7.179688 23.265625 -6.390625 26.578125 -6.390625 Z M 26.578125 -6.390625 "/></g></g></g><g fill="#000000" fill-opacity="1"><g transform="translate(210.567869, 100.599691)"><g><path d="M 56.625 -49.625 C 59.863281 -49.625 62.816406 -48.976562 65.484375 -47.6875 C 68.160156 -46.40625 70.296875 -44.140625 71.890625 -40.890625 C 73.484375 -37.640625 74.28125 -33.003906 74.28125 -26.984375 C 74.28125 -18.804688 74.28125 -12.265625 74.28125 -7.359375 C 74.28125 -2.453125 74.28125 0 74.28125 0 L 66.96875 0 C 66.96875 0 66.96875 -0.675781 66.96875 -2.03125 C 66.96875 -3.382812 66.96875 -5.160156 66.96875 -7.359375 C 66.96875 -9.554688 66.96875 -11.867188 66.96875 -14.296875 C 66.96875 -16.734375 66.96875 -19.085938 66.96875 -21.359375 C 66.96875 -23.628906 66.96875 -25.503906 66.96875 -26.984375 C 66.96875 -32.328125 66.050781 -36.21875 64.21875 -38.65625 C 62.394531 -41.09375 59.488281 -42.3125 55.5 -42.3125 C 51.78125 -42.3125 48.867188 -41.007812 46.765625 -38.40625 C 44.671875 -35.800781 43.625 -31.789062 43.625 -26.375 C 43.625 -18.394531 43.625 -12.003906 43.625 -7.203125 C 43.625 -2.398438 43.625 0 43.625 0 L 36.328125 0 C 36.328125 0 36.328125 -0.675781 36.328125 -2.03125 C 36.328125 -3.382812 36.328125 -5.160156 36.328125 -7.359375 C 36.328125 -9.554688 36.328125 -11.867188 36.328125 -14.296875 C 36.328125 -16.734375 36.328125 -19.085938 36.328125 -21.359375 C 36.328125 -23.628906 36.328125 -25.503906 36.328125 -26.984375 C 36.328125 -32.328125 35.394531 -36.21875 33.53125 -38.65625 C 31.675781 -41.09375 28.753906 -42.3125 24.765625 -42.3125 C 21.035156 -42.3125 18.140625 -41.007812 16.078125 -38.40625 C 14.015625 -35.800781 12.984375 -31.789062 12.984375 -26.375 L 12.984375 0 L 5.578125 0 L 5.578125 -48.90625 L 12.984375 -48.90625 L 12.984375 -43.9375 C 14.546875 -45.695312 16.40625 -47.082031 18.5625 -48.09375 C 20.726562 -49.113281 23.195312 -49.625 25.96875 -49.625 C 29.15625 -49.625 32.082031 -49.015625 34.75 -47.796875 C 37.425781 -46.578125 39.539062 -44.34375 41.09375 -41.09375 C 42.78125 -43.664062 44.925781 -45.726562 47.53125 -47.28125 C 50.132812 -48.84375 53.164062 -49.625 56.625 -49.625 Z M 56.625 -49.625 "/></g></g></g></svg>